<svg width="446" height="79" viewBox="0 0 446 79" fill="none" xmlns="http://www.w3.org/2000/svg">
<g clip-path="url(#clip0_64_16039)">
<path d="M56.7901 78.0526C78.4599 78.0526 96.0267 60.7332 96.0267 39.3684C96.0267 18.0037 78.4599 0.684204 56.7901 0.684204C35.1201 0.684204 17.5532 18.0037 17.5532 39.3684C17.5532 60.7332 35.1201 78.0526 56.7901 78.0526Z" fill="#D3DDF4"/>
<path d="M39.2368 78.0526C60.9068 78.0526 78.4737 60.7332 78.4737 39.3684C78.4737 18.0037 60.9068 0.684204 39.2368 0.684204C17.5669 0.684204 0 18.0037 0 39.3684C0 60.7332 17.5669 78.0526 39.2368 78.0526Z" fill="#1653F1"/>
<path d="M32.6404 23.8952V40.1058L22.1052 37.8953L35.6505 47.4741L29.6303 53.3689L44.6807 46.0005L46.9384 54.8426L48.0229 40.1058L57.4736 41.5794L43.1756 32.7373L49.9484 25.3688L35.6505 32.7373L32.6404 23.8952Z" fill="white" stroke="white"/>
<path d="M145.952 24.2611C141.859 20.2253 136.516 18.179 131.173 18.179C117.133 18.179 110.141 28.5242 110.141 39.7221C110.141 50.1811 116.223 60.0147 131.173 60.0147C138.164 60.0147 143.11 57.3432 147.032 52.8526V36.0842H129.979V42.7916H140.154V49.84C137.027 52.3411 134.299 53.0232 131.173 53.0232C121.282 53.0232 117.474 46.259 117.474 39.7221C117.474 31.5368 122.646 25.0569 131.173 25.0569C134.64 25.0569 138.619 26.4779 141.291 29.0358L145.952 24.2611ZM152.632 31.0821V59.1053H159.567V44.3263C159.567 39.1537 162.921 37.2211 166.558 37.2211C168.832 37.2211 170.14 37.8463 171.561 39.04L174.687 33.0147C173.152 31.48 170.367 30.3432 167.468 30.3432C164.626 30.3432 161.727 30.8547 159.567 34.3221L159.055 31.0821H152.632ZM190.465 30.5137C181.541 30.5137 175.971 37.1074 175.971 45.1221C175.971 53.1937 181.427 59.7305 190.522 59.7305C199.617 59.7305 205.131 53.1937 205.131 45.1221C205.131 37.1074 199.39 30.5137 190.465 30.5137ZM190.522 36.8232C195.183 36.8232 198.139 40.9158 198.139 45.1221C198.139 49.3853 195.581 53.3642 190.522 53.3642C185.463 53.3642 182.905 49.3853 182.905 45.1221C182.905 40.9158 185.52 36.8232 190.522 36.8232ZM228.363 31.0253L222.281 52.1137L215.858 31.0253H208.127L217.961 59.219H226.033L228.932 50.92L231.433 41.5411L233.934 50.92L236.833 59.219H244.904L254.681 31.0253H247.007L240.584 52.1137L234.445 31.0253H228.363ZM263.384 23.92V31.139H258.155V37.1074H263.384V49.2147C263.384 56.2063 267.363 59.6737 273.445 59.4463C275.548 59.3895 277.197 59.0484 279.186 58.2526L277.254 52.3411C276.231 52.8526 274.98 53.1937 273.9 53.1937C271.74 53.1937 270.262 51.8863 270.262 49.2147V37.1074H278.05V31.139H270.319V23.1811L263.384 23.92ZM283.246 19.3158V59.1053H290.181V44.7811C290.181 40.5747 293.023 37.1074 297.115 37.1074C300.81 37.1074 303.482 39.2674 303.482 44.3832V59.1053H310.416V44.3263C310.416 36.0842 306.892 30.6842 298.934 30.6842C295.751 30.6842 292.682 31.6505 290.181 34.8905V19.3158H283.246ZM316.786 19.3158V59.1053H344.752V52.1705H324.289V19.3158H316.786ZM362.713 30.5137C353.788 30.5137 348.218 37.1074 348.218 45.1221C348.218 53.1937 353.675 59.7305 362.77 59.7305C371.864 59.7305 377.378 53.1937 377.378 45.1221C377.378 37.1074 371.637 30.5137 362.713 30.5137ZM362.77 36.8232C367.431 36.8232 370.386 40.9158 370.386 45.1221C370.386 49.3853 367.828 53.3642 362.77 53.3642C357.711 53.3642 355.153 49.3853 355.153 45.1221C355.153 40.9158 357.767 36.8232 362.77 36.8232ZM395.353 30.5137C386.428 30.5137 380.858 37.1074 380.858 45.1221C380.858 53.1937 386.315 59.7305 395.41 59.7305C404.504 59.7305 410.018 53.1937 410.018 45.1221C410.018 37.1074 404.277 30.5137 395.353 30.5137ZM395.41 36.8232C400.071 36.8232 403.026 40.9158 403.026 45.1221C403.026 49.3853 400.468 53.3642 395.41 53.3642C390.351 53.3642 387.793 49.3853 387.793 45.1221C387.793 40.9158 390.407 36.8232 395.41 36.8232ZM430.323 53.08C425.605 53.08 422.365 49.499 422.365 45.1221C422.365 40.7453 425.321 37.1642 430.323 37.1642C435.325 37.1642 438.281 40.7453 438.281 45.1221C438.281 49.499 435.041 53.08 430.323 53.08ZM421.74 70.8147V55.8084C423.73 58.8779 428.106 59.7874 431.062 59.7874C440.043 59.7874 445.216 53.3074 445.216 45.1221C445.216 36.88 439.475 30.4568 430.835 30.4568C427.652 30.4568 423.9 31.8211 421.74 34.9474L421.285 31.0821H414.805V70.8147H421.74Z" fill="black"/>
</g>
<defs>
<clipPath id="clip0_64_16039">
<rect width="446" height="79" fill="white"/>
</clipPath>
</defs>
</svg>
